<svg width="29" height="28" viewBox="0 0 29 28" fill="none" xmlns="http://www.w3.org/2000/svg">
<g clip-path="url(#clip0_1_1298)">
<path fill-rule="evenodd" clip-rule="evenodd" d="M5.85543 4.89488C5.50691 4.89488 5.23083 5.18494 5.23083 5.5394V9.74073H4.45294V5.5394C4.45294 4.73149 5.08229 4.08325 5.85543 4.08325H27.4776C28.2507 4.08325 28.88 4.73149 28.88 5.5394V18.1435C28.88 18.9513 28.2507 19.5996 27.4776 19.5996H17.6007V18.7879H27.4776C27.8261 18.7879 28.1022 18.4979 28.1022 18.1435V5.5394C28.1022 5.18494 27.8261 4.89488 27.4776 4.89488H5.85543Z" fill="white"/>
<path fill-rule="evenodd" clip-rule="evenodd" d="M20.4159 10.8468C20.0675 10.8468 19.7913 11.1369 19.7913 11.4913V19.8944C19.7913 20.2488 20.0675 20.5388 20.4159 20.5388H23.7944C24.143 20.5388 24.419 20.2488 24.419 19.8944V11.4913C24.419 11.1369 24.143 10.8468 23.7944 10.8468H20.4159ZM19.0135 11.4913C19.0135 10.6834 19.6428 10.0352 20.4159 10.0352H23.7944C24.5675 10.0352 25.1969 10.6834 25.1969 11.4913V19.8944C25.1969 20.7023 24.5675 21.3505 23.7944 21.3505H20.4159C19.6428 21.3505 19.0135 20.7023 19.0135 19.8944V11.4913Z" fill="white"/>
<path fill-rule="evenodd" clip-rule="evenodd" d="M2.28249 10.1449C1.93397 10.1449 1.65789 10.4349 1.65789 10.7894V19.8923C1.65789 20.2468 1.93397 20.5369 2.28249 20.5369H16.472C16.8205 20.5369 17.0966 20.2468 17.0966 19.8923V10.7894C17.0966 10.4349 16.8205 10.1449 16.472 10.1449H2.28249ZM0.880005 10.7894C0.880005 9.9815 1.50935 9.33325 2.28249 9.33325H16.472C17.2452 9.33325 17.8745 9.9815 17.8745 10.7894V19.8923C17.8745 20.7002 17.2452 21.3485 16.472 21.3485H2.28249C1.50935 21.3485 0.880005 20.7002 0.880005 19.8923V10.7894Z" fill="white"/>
<path fill-rule="evenodd" clip-rule="evenodd" d="M0.880005 21.9959C0.880005 21.188 1.50935 20.5398 2.28249 20.5398H16.472C17.2452 20.5398 17.8745 21.188 17.8745 21.9959V22.7519H0.880005V21.9959ZM1.66018 21.9403H17.0943C17.0672 21.6116 16.8021 21.3514 16.472 21.3514H2.28249C1.95242 21.3514 1.68731 21.6116 1.66018 21.9403Z" fill="white"/>
</g>
<defs>
<clipPath id="clip0_1_1298">
<rect width="28" height="28" fill="white" transform="translate(0.880005)"/>
</clipPath>
</defs>
</svg>
