<svg width="76" height="21" viewBox="0 0 76 21" fill="none" xmlns="http://www.w3.org/2000/svg">
<g clip-path="url(#clip0_1_2659)">
<path d="M71.2689 5.3048C68.6574 5.3048 66.5306 7.43168 66.5306 10.0432V11.8289H63.4598C62.6339 11.8289 61.9611 11.1593 61.9611 10.3302V8.00565C61.9611 7.98971 61.958 7.97057 61.9548 7.95463C61.9515 7.93869 61.9452 7.92274 61.9388 7.9068C61.9261 7.8781 61.9069 7.8494 61.8846 7.82708C61.84 7.78244 61.7762 7.75374 61.706 7.75374H58.9478C58.8777 7.75374 58.817 7.78244 58.7691 7.82708C58.7468 7.8494 58.7278 7.8781 58.715 7.9068C58.7086 7.92274 58.7023 7.93869 58.6991 7.95463C58.6959 7.97057 58.6926 7.98652 58.6926 8.00565V10.3302C58.6926 11.1561 58.0231 11.8289 57.194 11.8289H55.5582H54.608C53.7821 11.8289 53.1092 11.1593 53.1092 10.3302V3.93046C53.1092 3.86031 53.0806 3.79973 53.0359 3.7519C52.9913 3.70725 52.9275 3.67855 52.8573 3.67855H50.099C50.0288 3.67855 49.9684 3.70725 49.9205 3.7519C49.8759 3.79654 49.8471 3.86031 49.8471 3.93046V10.3302C49.8471 11.1561 49.1775 11.8289 48.3484 11.8289H46.6521C46.1483 11.8289 45.6763 11.6344 45.3223 11.2773L40.3544 6.30925L40.2938 6.24866C39.0279 4.98274 36.9678 4.98274 35.702 6.24866L35.0228 6.92786L26.8438 15.1101H30.6256C31.1581 15.1101 31.6683 14.8997 32.0446 14.5234L33.6101 12.9577L34.873 14.2205C36.7192 16.0667 39.7261 16.0667 41.5724 14.2205C41.9359 13.857 42.2293 13.4456 42.4494 13.0088L43.0233 13.5827C43.9958 14.5553 45.2873 15.0878 46.6617 15.0878H48.3581C49.557 15.0878 50.6506 14.6446 51.4861 13.9144C52.3215 14.6446 53.4153 15.0878 54.6143 15.0878H55.5646H57.2004C58.3993 15.0878 59.493 14.6446 60.3284 13.9144C61.1639 14.6446 62.2576 15.0878 63.4566 15.0878H66.5273H67.4681H72.7549C74.5469 15.0878 76.001 13.6306 76.001 11.8417V10.0432C76.0075 7.43168 73.8805 5.3048 71.2689 5.3048ZM39.2478 11.931C38.6706 12.489 37.7491 12.4826 37.1783 11.9118L35.9156 10.6491L37.647 8.91762C37.8416 8.72311 38.1605 8.72311 38.3582 8.91762L39.2383 9.79771C39.8218 10.3813 39.8409 11.357 39.2478 11.931ZM72.7453 11.3251C72.7453 11.6025 72.5221 11.8257 72.2447 11.8257H69.7957V10.0401C69.7957 9.23331 70.443 8.57643 71.2466 8.56368C72.0725 8.55092 72.7485 9.25244 72.7485 10.0783V11.3251H72.7453Z" fill="white"/>
<path d="M23.284 11.8289C22.4582 11.8289 21.7853 11.1593 21.7853 10.3302V8.00566C21.7853 7.86854 21.6737 7.75375 21.5334 7.75375H18.7752C18.6381 7.75375 18.5233 7.86535 18.5233 8.00566V10.3302C18.5233 11.1561 17.8537 11.8289 17.0246 11.8289H10.6599H7.76773H4.75757C3.93169 11.8289 3.25887 11.1593 3.25887 10.3302V8.00566C3.25887 7.86854 3.14727 7.75375 3.00696 7.75375H0.251909C0.111605 7.75375 0 7.86535 0 8.00566V10.3302C0 12.9577 2.13007 15.091 4.76076 15.091H7.77092H10.6631H17.0278C18.2267 15.091 19.3205 14.6478 20.1559 13.9175C20.9914 14.6478 22.0851 15.091 23.284 15.091H25.0474L28.3095 11.8289H23.284Z" fill="white"/>
<path d="M69.8925 3.67525H72.654C72.7911 3.67525 72.9059 3.56365 72.9059 3.42334V0.661913C72.9059 0.524798 72.7943 0.410004 72.654 0.410004H69.8925C69.7554 0.410004 69.6406 0.521609 69.6406 0.661913V3.42334C69.6406 3.56046 69.7554 3.67525 69.8925 3.67525Z" fill="white"/>
<path d="M25.2988 6.94039H28.0602C28.1973 6.94039 28.3121 6.82878 28.3121 6.68848V3.92705C28.3121 3.78993 28.2005 3.67514 28.0602 3.67514H25.2988C25.1617 3.67514 25.0469 3.78674 25.0469 3.92705V6.68848C25.0469 6.82878 25.1585 6.94039 25.2988 6.94039Z" fill="white"/>
<path d="M7.88472 6.94039H10.8949H13.905C14.0421 6.94039 14.1569 6.82878 14.1569 6.68848V3.92705C14.1569 3.78993 14.0453 3.67514 13.905 3.67514H10.8949H7.88472C7.74761 3.67514 7.63281 3.78674 7.63281 3.92705V6.68848C7.63281 6.82878 7.74442 6.94039 7.88472 6.94039Z" fill="white"/>
<path d="M58.9207 16.7171H55.9105H52.9003C52.7632 16.7171 52.6484 16.8287 52.6484 16.969V19.7305C52.6484 19.8676 52.76 19.9824 52.9003 19.9824H55.9105H58.9207C59.0578 19.9824 59.1726 19.8708 59.1726 19.7305V16.969C59.1694 16.8287 59.0578 16.7171 58.9207 16.7171Z" fill="white"/>
</g>
<defs>
<clipPath id="clip0_1_2659">
<rect width="76" height="20" fill="white" transform="translate(0 0.410004)"/>
</clipPath>
</defs>
</svg>
